<svg xmlns="http://www.w3.org/2000/svg" viewBox="0 0 167.03 12.59"><defs><style>.cls-1{fill:#fff;}</style></defs><g id="Layer_2" data-name="Layer 2"><g id="Arte"><path class="cls-1" d="M11.06,9.61v1.93a9.23,9.23,0,0,1-4.47,1.05,6.91,6.91,0,0,1-3.49-.82A6.13,6.13,0,0,1,.83,9.49,6.22,6.22,0,0,1,0,6.35a6,6,0,0,1,1.91-4.5A6.58,6.58,0,0,1,6.63,0a10.89,10.89,0,0,1,4.29,1V2.92A8.42,8.42,0,0,0,6.71,1.69,4.86,4.86,0,0,0,3.21,3,4.42,4.42,0,0,0,1.82,6.35,4.41,4.41,0,0,0,3.19,9.68,4.91,4.91,0,0,0,6.7,11,8,8,0,0,0,11.06,9.61Z"/><path class="cls-1" d="M23.92,0a6.6,6.6,0,0,1,4.74,1.8,6,6,0,0,1,1.89,4.52,5.84,5.84,0,0,1-1.91,4.49,6.75,6.75,0,0,1-4.81,1.78,6.42,6.42,0,0,1-4.63-1.78,5.93,5.93,0,0,1-1.85-4.46A6.07,6.07,0,0,1,19.21,1.8,6.53,6.53,0,0,1,23.92,0ZM24,1.67A4.75,4.75,0,0,0,20.53,3a4.47,4.47,0,0,0-1.36,3.36,4.44,4.44,0,0,0,1.36,3.31A4.72,4.72,0,0,0,23.94,11a4.71,4.71,0,0,0,3.43-1.35,4.46,4.46,0,0,0,1.37-3.35A4.37,4.37,0,0,0,27.37,3,4.66,4.66,0,0,0,24,1.67Z"/><path class="cls-1" d="M37.4.18h1.75V10.85h5.53v1.6H37.4Z"/><path class="cls-1" d="M56.93,0a6.59,6.59,0,0,1,4.73,1.8,6,6,0,0,1,1.9,4.52,5.87,5.87,0,0,1-1.91,4.49,6.79,6.79,0,0,1-4.82,1.78,6.38,6.38,0,0,1-4.62-1.78,5.89,5.89,0,0,1-1.85-4.46A6.07,6.07,0,0,1,52.22,1.8,6.5,6.5,0,0,1,56.93,0ZM57,1.67A4.78,4.78,0,0,0,53.53,3a4.5,4.5,0,0,0-1.35,3.36,4.4,4.4,0,0,0,1.36,3.31,5,5,0,0,0,6.83,0,4.47,4.47,0,0,0,1.38-3.35A4.38,4.38,0,0,0,60.37,3,4.64,4.64,0,0,0,57,1.67Z"/><path class="cls-1" d="M80.16.18h1.65V12.45H80V2.9L76.27,7.65h-.33L72.12,2.9v9.55H70.36V.18H72l4.08,5Z"/><path class="cls-1" d="M93.29,12.45H89.13V.18h3.22a5.65,5.65,0,0,1,2.37.4A3.07,3.07,0,0,1,96,1.71a3.06,3.06,0,0,1,.45,1.66A2.67,2.67,0,0,1,94.6,6a3.78,3.78,0,0,1,2.14,1.11,2.86,2.86,0,0,1,.8,2,3,3,0,0,1-.49,1.67A3.41,3.41,0,0,1,95.63,12,5.22,5.22,0,0,1,93.29,12.45ZM92.4,1.74H90.89V5.43h1.17a3,3,0,0,0,2-.53,1.77,1.77,0,0,0,.59-1.39Q94.65,1.74,92.4,1.74ZM92.53,7H90.89v3.89h1.73a6,6,0,0,0,2-.22,1.86,1.86,0,0,0,.82-.7,1.83,1.83,0,0,0,.32-1,1.73,1.73,0,0,0-.33-1,2.05,2.05,0,0,0-.94-.7A6,6,0,0,0,92.53,7Z"/><path class="cls-1" d="M104,.18h1.76V12.45H104Z"/><path class="cls-1" d="M117.05.11h1.23l5.51,12.34H122l-1.64-3.63h-5.24l-1.53,3.63h-1.81Zm2.58,7.14-2-4.45-1.84,4.45Z"/><path class="cls-1" d="M145.52,0a6.6,6.6,0,0,1,4.74,1.8,6,6,0,0,1,1.89,4.52,5.87,5.87,0,0,1-1.91,4.49,6.77,6.77,0,0,1-4.82,1.78,6.38,6.38,0,0,1-4.62-1.78A5.89,5.89,0,0,1,139,6.35a6.07,6.07,0,0,1,1.86-4.55A6.5,6.5,0,0,1,145.52,0Zm.07,1.67A4.78,4.78,0,0,0,142.12,3a4.5,4.5,0,0,0-1.35,3.36,4.4,4.4,0,0,0,1.36,3.31,5,5,0,0,0,6.83,0,4.47,4.47,0,0,0,1.38-3.35A4.38,4.38,0,0,0,149,3,4.64,4.64,0,0,0,145.59,1.67Z"/><path class="cls-1" d="M156.78.16H167V1.72h-4.28V12.45H161V1.72h-4.21Z"/></g></g></svg>